<mxfile host="app.diagrams.net" modified="2021-06-04T14:10:19.848Z" agent="5.0 (Windows NT 10.0; Win64; x64) AppleWebKit/537.36 (KHTML, like Gecko) Chrome/91.0.4472.77 Safari/537.36 Edg/91.0.864.37" etag="Y-Sh7bQ1hKcH6JvWzC3p" version="14.7.6" type="github" pages="2">
  <diagram id="CqXALl4XT2WkMqHkRKDP" name="前序遍历">
    <mxGraphModel dx="3539" dy="1270" grid="1" gridSize="10" guides="1" tooltips="1" connect="1" arrows="1" fold="1" page="1" pageScale="1" pageWidth="1169" pageHeight="827" math="0" shadow="0">
      <root>
        <mxCell id="0" />
        <mxCell id="1" parent="0" />
        <mxCell id="_nsNvRPeGPhdpC21-aW--12" value="&lt;div style=&quot;background-color: rgb(255 , 255 , 255) ; font-family: &amp;#34;consolas&amp;#34; , &amp;#34;courier new&amp;#34; , monospace ; font-weight: normal ; font-size: 11px ; line-height: 18px ; color: rgb(0 , 0 , 0)&quot;&gt;&lt;div style=&quot;font-size: 11px&quot;&gt;&lt;span style=&quot;color: rgb(0 , 0 , 255)&quot;&gt;# 节点1&lt;/span&gt;&lt;/div&gt;&lt;div style=&quot;font-size: 11px&quot;&gt;&lt;span style=&quot;color: rgb(0 , 0 , 255)&quot;&gt;def&lt;/span&gt;&amp;nbsp;&lt;span style=&quot;color: rgb(121 , 94 , 38)&quot;&gt;preorderTraversal&lt;/span&gt;(&lt;span style=&quot;color: rgb(0 , 16 , 128)&quot;&gt;root = 1&lt;/span&gt;)&lt;/div&gt;&lt;div style=&quot;font-size: 11px&quot;&gt;&lt;span style=&quot;color: rgb(0 , 0 , 0) ; font-size: 11px&quot;&gt;&amp;nbsp; &amp;nbsp;&amp;nbsp;&lt;/span&gt;&lt;span style=&quot;color: rgb(175 , 0 , 219) ; font-size: 11px&quot;&gt;return&lt;/span&gt;&lt;span style=&quot;color: rgb(0 , 0 , 0) ; font-size: 11px&quot;&gt;&amp;nbsp;&amp;nbsp;[root.val]&amp;nbsp;+&amp;nbsp;\&lt;/span&gt;&lt;/div&gt;&lt;div style=&quot;font-size: 11px&quot;&gt;&lt;span style=&quot;color: rgb(0 , 0 , 0) ; font-size: 11px&quot;&gt;&amp;nbsp; &amp;nbsp; &amp;nbsp; &amp;nbsp; &amp;nbsp; &amp;nbsp;&amp;nbsp;&lt;/span&gt;&lt;span style=&quot;color: rgb(0 , 0 , 255) ; font-size: 11px&quot;&gt;self&lt;/span&gt;&lt;span style=&quot;color: rgb(0 , 0 , 0) ; font-size: 11px&quot;&gt;.preorderTraversal(root.left = 2)&amp;nbsp;+&amp;nbsp;\&lt;/span&gt;&lt;/div&gt;&lt;div style=&quot;font-size: 11px&quot;&gt;&lt;span style=&quot;color: rgb(0 , 0 , 0) ; font-size: 11px&quot;&gt;&amp;nbsp; &amp;nbsp; &amp;nbsp; &amp;nbsp; &amp;nbsp; &amp;nbsp;&amp;nbsp;&lt;/span&gt;&lt;span style=&quot;color: rgb(0 , 0 , 255) ; font-size: 11px&quot;&gt;self&lt;/span&gt;&lt;span style=&quot;color: rgb(0 , 0 , 0) ; font-size: 11px&quot;&gt;.preorderTraversal(root.right = 3)&lt;/span&gt;&lt;/div&gt;&lt;/div&gt;" style="text;whiteSpace=wrap;html=1;strokeColor=#000000;" vertex="1" parent="1">
          <mxGeometry x="-733" y="120" width="360" height="100" as="geometry" />
        </mxCell>
        <mxCell id="_nsNvRPeGPhdpC21-aW--21" style="edgeStyle=orthogonalEdgeStyle;rounded=0;orthogonalLoop=1;jettySize=auto;html=1;exitX=0.25;exitY=0;exitDx=0;exitDy=0;entryX=0.204;entryY=0.701;entryDx=0;entryDy=0;entryPerimeter=0;curved=1;startArrow=classic;startFill=1;endArrow=none;endFill=0;" edge="1" parent="1" source="_nsNvRPeGPhdpC21-aW--14" target="_nsNvRPeGPhdpC21-aW--12">
          <mxGeometry relative="1" as="geometry">
            <Array as="points">
              <mxPoint x="-758" y="190" />
            </Array>
          </mxGeometry>
        </mxCell>
        <mxCell id="_nsNvRPeGPhdpC21-aW--14" value="&lt;div style=&quot;background-color: rgb(255 , 255 , 255) ; font-family: &amp;#34;consolas&amp;#34; , &amp;#34;courier new&amp;#34; , monospace ; font-weight: normal ; font-size: 11px ; line-height: 18px ; color: rgb(0 , 0 , 0)&quot;&gt;&lt;div style=&quot;font-size: 11px&quot;&gt;&lt;span style=&quot;color: rgb(0 , 0 , 255)&quot;&gt;# 节点2&lt;/span&gt;&lt;/div&gt;&lt;div style=&quot;font-size: 11px&quot;&gt;&lt;span style=&quot;color: rgb(0 , 0 , 255)&quot;&gt;def&lt;/span&gt;&amp;nbsp;&lt;span style=&quot;color: rgb(121 , 94 , 38)&quot;&gt;preorderTraversal&lt;/span&gt;(&lt;span style=&quot;color: rgb(0 , 16 , 128)&quot;&gt;root = 2&lt;/span&gt;)&lt;/div&gt;&lt;div style=&quot;font-size: 11px&quot;&gt;&lt;span style=&quot;color: rgb(0 , 0 , 0) ; font-size: 11px&quot;&gt;&amp;nbsp; &amp;nbsp;&amp;nbsp;&lt;/span&gt;&lt;span style=&quot;color: rgb(175 , 0 , 219) ; font-size: 11px&quot;&gt;return&lt;/span&gt;&lt;span style=&quot;color: rgb(0 , 0 , 0) ; font-size: 11px&quot;&gt;&amp;nbsp;&amp;nbsp;[root.val]&amp;nbsp;+&amp;nbsp;\&lt;/span&gt;&lt;/div&gt;&lt;div style=&quot;font-size: 11px&quot;&gt;&lt;span style=&quot;color: rgb(0 , 0 , 0) ; font-size: 11px&quot;&gt;&amp;nbsp; &amp;nbsp; &amp;nbsp; &amp;nbsp; &amp;nbsp; &amp;nbsp;&amp;nbsp;&lt;/span&gt;&lt;span style=&quot;color: rgb(0 , 0 , 255) ; font-size: 11px&quot;&gt;self&lt;/span&gt;&lt;span style=&quot;color: rgb(0 , 0 , 0) ; font-size: 11px&quot;&gt;.preorderTraversal(root.left = 4)&amp;nbsp;+&amp;nbsp;\&lt;/span&gt;&lt;/div&gt;&lt;div style=&quot;font-size: 11px&quot;&gt;&lt;span style=&quot;color: rgb(0 , 0 , 0) ; font-size: 11px&quot;&gt;&amp;nbsp; &amp;nbsp; &amp;nbsp; &amp;nbsp; &amp;nbsp; &amp;nbsp;&amp;nbsp;&lt;/span&gt;&lt;span style=&quot;color: rgb(0 , 0 , 255) ; font-size: 11px&quot;&gt;self&lt;/span&gt;&lt;span style=&quot;color: rgb(0 , 0 , 0) ; font-size: 11px&quot;&gt;.preorderTraversal(root.right = 6)&lt;/span&gt;&lt;/div&gt;&lt;/div&gt;" style="text;whiteSpace=wrap;html=1;fillColor=#ffffff;strokeColor=#000000;" vertex="1" parent="1">
          <mxGeometry x="-848" y="250" width="360" height="100" as="geometry" />
        </mxCell>
        <mxCell id="_nsNvRPeGPhdpC21-aW--22" style="edgeStyle=orthogonalEdgeStyle;curved=1;rounded=0;orthogonalLoop=1;jettySize=auto;html=1;exitX=0.5;exitY=0;exitDx=0;exitDy=0;entryX=0.933;entryY=0.856;entryDx=0;entryDy=0;entryPerimeter=0;startArrow=classic;startFill=1;endArrow=none;endFill=0;" edge="1" parent="1" source="_nsNvRPeGPhdpC21-aW--15" target="_nsNvRPeGPhdpC21-aW--12">
          <mxGeometry relative="1" as="geometry">
            <Array as="points">
              <mxPoint x="-266" y="206" />
            </Array>
          </mxGeometry>
        </mxCell>
        <mxCell id="_nsNvRPeGPhdpC21-aW--15" value="&lt;div style=&quot;background-color: rgb(255 , 255 , 255) ; font-family: &amp;#34;consolas&amp;#34; , &amp;#34;courier new&amp;#34; , monospace ; font-weight: normal ; font-size: 11px ; line-height: 18px ; color: rgb(0 , 0 , 0)&quot;&gt;&lt;div style=&quot;font-size: 11px&quot;&gt;&lt;span style=&quot;color: rgb(0 , 0 , 255)&quot;&gt;# 节点3&lt;/span&gt;&lt;/div&gt;&lt;div style=&quot;font-size: 11px&quot;&gt;&lt;span style=&quot;color: rgb(0 , 0 , 255)&quot;&gt;def&lt;/span&gt;&amp;nbsp;&lt;span style=&quot;color: rgb(121 , 94 , 38)&quot;&gt;preorderTraversal&lt;/span&gt;(&lt;span style=&quot;color: rgb(0 , 16 , 128)&quot;&gt;root = 3&lt;/span&gt;)&lt;/div&gt;&lt;div style=&quot;font-size: 11px&quot;&gt;&lt;span style=&quot;color: rgb(0 , 0 , 0) ; font-size: 11px&quot;&gt;&amp;nbsp; &amp;nbsp;&amp;nbsp;&lt;/span&gt;&lt;span style=&quot;color: rgb(175 , 0 , 219) ; font-size: 11px&quot;&gt;return&lt;/span&gt;&lt;span style=&quot;color: rgb(0 , 0 , 0) ; font-size: 11px&quot;&gt;&amp;nbsp;&amp;nbsp;[root.val]&amp;nbsp;+&amp;nbsp;\&lt;/span&gt;&lt;/div&gt;&lt;div style=&quot;font-size: 11px&quot;&gt;&lt;span style=&quot;color: rgb(0 , 0 , 0) ; font-size: 11px&quot;&gt;&amp;nbsp; &amp;nbsp; &amp;nbsp; &amp;nbsp; &amp;nbsp; &amp;nbsp;&amp;nbsp;&lt;/span&gt;&lt;span style=&quot;color: rgb(0 , 0 , 255) ; font-size: 11px&quot;&gt;self&lt;/span&gt;&lt;span style=&quot;color: rgb(0 , 0 , 0) ; font-size: 11px&quot;&gt;.preorderTraversal(root.left = None)&amp;nbsp;+&amp;nbsp;\&lt;/span&gt;&lt;/div&gt;&lt;div style=&quot;font-size: 11px&quot;&gt;&lt;span style=&quot;color: rgb(0 , 0 , 0) ; font-size: 11px&quot;&gt;&amp;nbsp; &amp;nbsp; &amp;nbsp; &amp;nbsp; &amp;nbsp; &amp;nbsp;&amp;nbsp;&lt;/span&gt;&lt;span style=&quot;color: rgb(0 , 0 , 255) ; font-size: 11px&quot;&gt;self&lt;/span&gt;&lt;span style=&quot;color: rgb(0 , 0 , 0) ; font-size: 11px&quot;&gt;.preorderTraversal(root.right = None)&lt;/span&gt;&lt;/div&gt;&lt;/div&gt;" style="text;whiteSpace=wrap;html=1;strokeColor=#000000;" vertex="1" parent="1">
          <mxGeometry x="-456" y="250" width="380" height="100" as="geometry" />
        </mxCell>
        <mxCell id="_nsNvRPeGPhdpC21-aW--23" style="edgeStyle=orthogonalEdgeStyle;curved=1;rounded=0;orthogonalLoop=1;jettySize=auto;html=1;exitX=0.5;exitY=0;exitDx=0;exitDy=0;entryX=0.5;entryY=1;entryDx=0;entryDy=0;startArrow=classic;startFill=1;endArrow=none;endFill=0;" edge="1" parent="1" source="_nsNvRPeGPhdpC21-aW--16" target="_nsNvRPeGPhdpC21-aW--15">
          <mxGeometry relative="1" as="geometry" />
        </mxCell>
        <mxCell id="_nsNvRPeGPhdpC21-aW--16" value="&lt;div style=&quot;background-color: rgb(255 , 255 , 255) ; font-family: &amp;#34;consolas&amp;#34; , &amp;#34;courier new&amp;#34; , monospace ; font-weight: normal ; font-size: 11px ; line-height: 18px ; color: rgb(0 , 0 , 0)&quot;&gt;&lt;div style=&quot;font-size: 11px&quot;&gt;&lt;span style=&quot;color: rgb(0 , 0 , 255)&quot;&gt;# 节点None&lt;/span&gt;&lt;/div&gt;&lt;div style=&quot;font-size: 11px&quot;&gt;&lt;span style=&quot;color: rgb(0 , 0 , 255)&quot;&gt;def&lt;/span&gt;&amp;nbsp;&lt;span style=&quot;color: rgb(121 , 94 , 38)&quot;&gt;preorderTraversal&lt;/span&gt;(&lt;span style=&quot;color: rgb(0 , 16 , 128)&quot;&gt;root = 3&lt;/span&gt;)&lt;/div&gt;&lt;div style=&quot;font-size: 11px&quot;&gt;&lt;span style=&quot;color: rgb(0 , 0 , 0) ; font-size: 11px&quot;&gt;&amp;nbsp; &amp;nbsp;&amp;nbsp;&lt;/span&gt;&lt;span style=&quot;color: rgb(175 , 0 , 219) ; font-size: 11px&quot;&gt;return&lt;/span&gt;&lt;span style=&quot;color: rgb(0 , 0 , 0) ; font-size: 11px&quot;&gt;&amp;nbsp;&amp;nbsp;[]&amp;nbsp;&lt;/span&gt;&lt;/div&gt;&lt;/div&gt;" style="text;whiteSpace=wrap;html=1;strokeColor=#000000;" vertex="1" parent="1">
          <mxGeometry x="-371" y="365" width="210" height="65" as="geometry" />
        </mxCell>
        <mxCell id="_nsNvRPeGPhdpC21-aW--26" style="edgeStyle=orthogonalEdgeStyle;curved=1;rounded=0;orthogonalLoop=1;jettySize=auto;html=1;exitX=0.25;exitY=0;exitDx=0;exitDy=0;entryX=0.2;entryY=0.716;entryDx=0;entryDy=0;entryPerimeter=0;startArrow=classic;startFill=1;endArrow=none;endFill=0;" edge="1" parent="1" source="_nsNvRPeGPhdpC21-aW--17" target="_nsNvRPeGPhdpC21-aW--14">
          <mxGeometry relative="1" as="geometry">
            <Array as="points">
              <mxPoint x="-998" y="322" />
            </Array>
          </mxGeometry>
        </mxCell>
        <mxCell id="_nsNvRPeGPhdpC21-aW--17" value="&lt;div style=&quot;background-color: rgb(255 , 255 , 255) ; font-family: &amp;#34;consolas&amp;#34; , &amp;#34;courier new&amp;#34; , monospace ; font-weight: normal ; font-size: 11px ; line-height: 18px ; color: rgb(0 , 0 , 0)&quot;&gt;&lt;div style=&quot;font-size: 11px&quot;&gt;&lt;span style=&quot;color: rgb(0 , 0 , 255)&quot;&gt;# 节点4&lt;/span&gt;&lt;/div&gt;&lt;div style=&quot;font-size: 11px&quot;&gt;&lt;span style=&quot;color: rgb(0 , 0 , 255)&quot;&gt;def&lt;/span&gt;&amp;nbsp;&lt;span style=&quot;color: rgb(121 , 94 , 38)&quot;&gt;preorderTraversal&lt;/span&gt;(&lt;span style=&quot;color: rgb(0 , 16 , 128)&quot;&gt;root = 4&lt;/span&gt;)&lt;/div&gt;&lt;div style=&quot;font-size: 11px&quot;&gt;&lt;span style=&quot;color: rgb(0 , 0 , 0) ; font-size: 11px&quot;&gt;&amp;nbsp; &amp;nbsp;&amp;nbsp;&lt;/span&gt;&lt;span style=&quot;color: rgb(175 , 0 , 219) ; font-size: 11px&quot;&gt;return&lt;/span&gt;&lt;span style=&quot;color: rgb(0 , 0 , 0) ; font-size: 11px&quot;&gt;&amp;nbsp;&amp;nbsp;[root.val]&amp;nbsp;+&amp;nbsp;\&lt;/span&gt;&lt;/div&gt;&lt;div style=&quot;font-size: 11px&quot;&gt;&lt;span style=&quot;color: rgb(0 , 0 , 0) ; font-size: 11px&quot;&gt;&amp;nbsp; &amp;nbsp; &amp;nbsp; &amp;nbsp; &amp;nbsp; &amp;nbsp;&amp;nbsp;&lt;/span&gt;&lt;span style=&quot;color: rgb(0 , 0 , 255) ; font-size: 11px&quot;&gt;self&lt;/span&gt;&lt;span style=&quot;color: rgb(0 , 0 , 0) ; font-size: 11px&quot;&gt;.preorderTraversal(root.left = None)&amp;nbsp;+&amp;nbsp;\&lt;/span&gt;&lt;/div&gt;&lt;div style=&quot;font-size: 11px&quot;&gt;&lt;span style=&quot;color: rgb(0 , 0 , 0) ; font-size: 11px&quot;&gt;&amp;nbsp; &amp;nbsp; &amp;nbsp; &amp;nbsp; &amp;nbsp; &amp;nbsp;&amp;nbsp;&lt;/span&gt;&lt;span style=&quot;color: rgb(0 , 0 , 255) ; font-size: 11px&quot;&gt;self&lt;/span&gt;&lt;span style=&quot;color: rgb(0 , 0 , 0) ; font-size: 11px&quot;&gt;.preorderTraversal(root.right = None)&lt;/span&gt;&lt;/div&gt;&lt;/div&gt;" style="text;whiteSpace=wrap;html=1;fillColor=#ffffff;strokeColor=#000000;" vertex="1" parent="1">
          <mxGeometry x="-1093" y="450" width="380" height="100" as="geometry" />
        </mxCell>
        <mxCell id="_nsNvRPeGPhdpC21-aW--27" style="edgeStyle=orthogonalEdgeStyle;curved=1;rounded=0;orthogonalLoop=1;jettySize=auto;html=1;exitX=0.75;exitY=0;exitDx=0;exitDy=0;entryX=0.925;entryY=0.923;entryDx=0;entryDy=0;entryPerimeter=0;startArrow=classic;startFill=1;endArrow=none;endFill=0;" edge="1" parent="1" source="_nsNvRPeGPhdpC21-aW--18" target="_nsNvRPeGPhdpC21-aW--14">
          <mxGeometry relative="1" as="geometry">
            <Array as="points">
              <mxPoint x="-398" y="400" />
              <mxPoint x="-473" y="400" />
              <mxPoint x="-473" y="342" />
            </Array>
          </mxGeometry>
        </mxCell>
        <mxCell id="_nsNvRPeGPhdpC21-aW--18" value="&lt;div style=&quot;background-color: rgb(255 , 255 , 255) ; font-family: &amp;#34;consolas&amp;#34; , &amp;#34;courier new&amp;#34; , monospace ; font-weight: normal ; font-size: 11px ; line-height: 18px ; color: rgb(0 , 0 , 0)&quot;&gt;&lt;div style=&quot;font-size: 11px&quot;&gt;&lt;span style=&quot;color: rgb(0 , 0 , 255)&quot;&gt;# 节点6&lt;/span&gt;&lt;/div&gt;&lt;div style=&quot;font-size: 11px&quot;&gt;&lt;span style=&quot;color: rgb(0 , 0 , 255)&quot;&gt;def&lt;/span&gt;&amp;nbsp;&lt;span style=&quot;color: rgb(121 , 94 , 38)&quot;&gt;preorderTraversal&lt;/span&gt;(&lt;span style=&quot;color: rgb(0 , 16 , 128)&quot;&gt;root = 6&lt;/span&gt;)&lt;/div&gt;&lt;div style=&quot;font-size: 11px&quot;&gt;&lt;span style=&quot;color: rgb(0 , 0 , 0) ; font-size: 11px&quot;&gt;&amp;nbsp; &amp;nbsp;&amp;nbsp;&lt;/span&gt;&lt;span style=&quot;color: rgb(175 , 0 , 219) ; font-size: 11px&quot;&gt;return&lt;/span&gt;&lt;span style=&quot;color: rgb(0 , 0 , 0) ; font-size: 11px&quot;&gt;&amp;nbsp;&amp;nbsp;[root.val]&amp;nbsp;+&amp;nbsp;\&lt;/span&gt;&lt;/div&gt;&lt;div style=&quot;font-size: 11px&quot;&gt;&lt;span style=&quot;color: rgb(0 , 0 , 0) ; font-size: 11px&quot;&gt;&amp;nbsp; &amp;nbsp; &amp;nbsp; &amp;nbsp; &amp;nbsp; &amp;nbsp;&amp;nbsp;&lt;/span&gt;&lt;span style=&quot;color: rgb(0 , 0 , 255) ; font-size: 11px&quot;&gt;self&lt;/span&gt;&lt;span style=&quot;color: rgb(0 , 0 , 0) ; font-size: 11px&quot;&gt;.preorderTraversal(root.left = None)&amp;nbsp;+&amp;nbsp;\&lt;/span&gt;&lt;/div&gt;&lt;div style=&quot;font-size: 11px&quot;&gt;&lt;span style=&quot;color: rgb(0 , 0 , 0) ; font-size: 11px&quot;&gt;&amp;nbsp; &amp;nbsp; &amp;nbsp; &amp;nbsp; &amp;nbsp; &amp;nbsp;&amp;nbsp;&lt;/span&gt;&lt;span style=&quot;color: rgb(0 , 0 , 255) ; font-size: 11px&quot;&gt;self&lt;/span&gt;&lt;span style=&quot;color: rgb(0 , 0 , 0) ; font-size: 11px&quot;&gt;.preorderTraversal(root.right = None)&lt;/span&gt;&lt;/div&gt;&lt;/div&gt;" style="text;whiteSpace=wrap;html=1;fillColor=#ffffff;strokeColor=#000000;" vertex="1" parent="1">
          <mxGeometry x="-683" y="450" width="380" height="100" as="geometry" />
        </mxCell>
        <mxCell id="_nsNvRPeGPhdpC21-aW--24" style="edgeStyle=orthogonalEdgeStyle;curved=1;rounded=0;orthogonalLoop=1;jettySize=auto;html=1;exitX=0.5;exitY=0;exitDx=0;exitDy=0;entryX=0.5;entryY=1;entryDx=0;entryDy=0;startArrow=classic;startFill=1;endArrow=none;endFill=0;" edge="1" parent="1" source="_nsNvRPeGPhdpC21-aW--19" target="_nsNvRPeGPhdpC21-aW--18">
          <mxGeometry relative="1" as="geometry" />
        </mxCell>
        <mxCell id="_nsNvRPeGPhdpC21-aW--19" value="&lt;div style=&quot;background-color: rgb(255 , 255 , 255) ; font-family: &amp;#34;consolas&amp;#34; , &amp;#34;courier new&amp;#34; , monospace ; font-weight: normal ; font-size: 11px ; line-height: 18px ; color: rgb(0 , 0 , 0)&quot;&gt;&lt;div style=&quot;font-size: 11px&quot;&gt;&lt;span style=&quot;color: rgb(0 , 0 , 255)&quot;&gt;# 节点None&lt;/span&gt;&lt;/div&gt;&lt;div style=&quot;font-size: 11px&quot;&gt;&lt;span style=&quot;color: rgb(0 , 0 , 255)&quot;&gt;def&lt;/span&gt;&amp;nbsp;&lt;span style=&quot;color: rgb(121 , 94 , 38)&quot;&gt;preorderTraversal&lt;/span&gt;(&lt;span style=&quot;color: rgb(0 , 16 , 128)&quot;&gt;root = 3&lt;/span&gt;)&lt;/div&gt;&lt;div style=&quot;font-size: 11px&quot;&gt;&lt;span style=&quot;color: rgb(0 , 0 , 0) ; font-size: 11px&quot;&gt;&amp;nbsp; &amp;nbsp;&amp;nbsp;&lt;/span&gt;&lt;span style=&quot;color: rgb(175 , 0 , 219) ; font-size: 11px&quot;&gt;return&lt;/span&gt;&lt;span style=&quot;color: rgb(0 , 0 , 0) ; font-size: 11px&quot;&gt;&amp;nbsp;&amp;nbsp;[]&amp;nbsp;&lt;/span&gt;&lt;/div&gt;&lt;/div&gt;" style="text;whiteSpace=wrap;html=1;strokeColor=#000000;" vertex="1" parent="1">
          <mxGeometry x="-598" y="590" width="210" height="70" as="geometry" />
        </mxCell>
        <mxCell id="_nsNvRPeGPhdpC21-aW--25" style="edgeStyle=orthogonalEdgeStyle;curved=1;rounded=0;orthogonalLoop=1;jettySize=auto;html=1;exitX=0.5;exitY=0;exitDx=0;exitDy=0;entryX=0.5;entryY=1;entryDx=0;entryDy=0;startArrow=classic;startFill=1;endArrow=none;endFill=0;" edge="1" parent="1" source="_nsNvRPeGPhdpC21-aW--20" target="_nsNvRPeGPhdpC21-aW--17">
          <mxGeometry relative="1" as="geometry" />
        </mxCell>
        <mxCell id="_nsNvRPeGPhdpC21-aW--20" value="&lt;div style=&quot;background-color: rgb(255 , 255 , 255) ; font-family: &amp;#34;consolas&amp;#34; , &amp;#34;courier new&amp;#34; , monospace ; font-weight: normal ; font-size: 11px ; line-height: 18px ; color: rgb(0 , 0 , 0)&quot;&gt;&lt;div style=&quot;font-size: 11px&quot;&gt;&lt;span style=&quot;color: rgb(0 , 0 , 255)&quot;&gt;# 节点None&lt;/span&gt;&lt;/div&gt;&lt;div style=&quot;font-size: 11px&quot;&gt;&lt;span style=&quot;color: rgb(0 , 0 , 255)&quot;&gt;def&lt;/span&gt;&amp;nbsp;&lt;span style=&quot;color: rgb(121 , 94 , 38)&quot;&gt;preorderTraversal&lt;/span&gt;(&lt;span style=&quot;color: rgb(0 , 16 , 128)&quot;&gt;root = 3&lt;/span&gt;)&lt;/div&gt;&lt;div style=&quot;font-size: 11px&quot;&gt;&lt;span style=&quot;color: rgb(0 , 0 , 0) ; font-size: 11px&quot;&gt;&amp;nbsp; &amp;nbsp;&amp;nbsp;&lt;/span&gt;&lt;span style=&quot;color: rgb(175 , 0 , 219) ; font-size: 11px&quot;&gt;return&lt;/span&gt;&lt;span style=&quot;color: rgb(0 , 0 , 0) ; font-size: 11px&quot;&gt;&amp;nbsp;&amp;nbsp;[]&amp;nbsp;&lt;/span&gt;&lt;/div&gt;&lt;/div&gt;" style="text;whiteSpace=wrap;html=1;strokeColor=#000000;" vertex="1" parent="1">
          <mxGeometry x="-1008" y="580" width="210" height="70" as="geometry" />
        </mxCell>
      </root>
    </mxGraphModel>
  </diagram>
  <diagram id="4bAvqBDUp8ag9QyJnswI" name="第 2 页">
    <mxGraphModel dx="1422" dy="762" grid="1" gridSize="10" guides="1" tooltips="1" connect="1" arrows="1" fold="1" page="1" pageScale="1" pageWidth="827" pageHeight="583" math="0" shadow="0">
      <root>
        <mxCell id="bXD3zzIToaZXQtOxM7Jp-0" />
        <mxCell id="bXD3zzIToaZXQtOxM7Jp-1" parent="bXD3zzIToaZXQtOxM7Jp-0" />
        <mxCell id="fEdp_O807f-Rq1JhpH3r-0" style="rounded=0;orthogonalLoop=1;jettySize=auto;html=1;exitX=0;exitY=1;exitDx=0;exitDy=0;entryX=0.5;entryY=0;entryDx=0;entryDy=0;fillColor=#dae8fc;strokeColor=#6c8ebf;" edge="1" parent="bXD3zzIToaZXQtOxM7Jp-1" source="fEdp_O807f-Rq1JhpH3r-2" target="fEdp_O807f-Rq1JhpH3r-3">
          <mxGeometry relative="1" as="geometry" />
        </mxCell>
        <mxCell id="fEdp_O807f-Rq1JhpH3r-1" style="edgeStyle=none;rounded=0;orthogonalLoop=1;jettySize=auto;html=1;exitX=1;exitY=1;exitDx=0;exitDy=0;entryX=0.5;entryY=0;entryDx=0;entryDy=0;fillColor=#dae8fc;strokeColor=#6c8ebf;" edge="1" parent="bXD3zzIToaZXQtOxM7Jp-1" source="fEdp_O807f-Rq1JhpH3r-2" target="fEdp_O807f-Rq1JhpH3r-4">
          <mxGeometry relative="1" as="geometry" />
        </mxCell>
        <mxCell id="fEdp_O807f-Rq1JhpH3r-2" value="2" style="ellipse;whiteSpace=wrap;html=1;aspect=fixed;fillColor=#dae8fc;strokeColor=#6c8ebf;" vertex="1" parent="bXD3zzIToaZXQtOxM7Jp-1">
          <mxGeometry x="149" y="190" width="30" height="30" as="geometry" />
        </mxCell>
        <mxCell id="fEdp_O807f-Rq1JhpH3r-3" value="4" style="ellipse;whiteSpace=wrap;html=1;aspect=fixed;fillColor=#dae8fc;strokeColor=#6c8ebf;" vertex="1" parent="bXD3zzIToaZXQtOxM7Jp-1">
          <mxGeometry x="119" y="240" width="30" height="30" as="geometry" />
        </mxCell>
        <mxCell id="fEdp_O807f-Rq1JhpH3r-4" value="6" style="ellipse;whiteSpace=wrap;html=1;aspect=fixed;fillColor=#dae8fc;strokeColor=#6c8ebf;" vertex="1" parent="bXD3zzIToaZXQtOxM7Jp-1">
          <mxGeometry x="179" y="240" width="30" height="30" as="geometry" />
        </mxCell>
        <mxCell id="fEdp_O807f-Rq1JhpH3r-5" style="edgeStyle=none;rounded=0;orthogonalLoop=1;jettySize=auto;html=1;exitX=0;exitY=1;exitDx=0;exitDy=0;entryX=0.5;entryY=0;entryDx=0;entryDy=0;fillColor=#dae8fc;strokeColor=#6c8ebf;" edge="1" parent="bXD3zzIToaZXQtOxM7Jp-1" source="fEdp_O807f-Rq1JhpH3r-7" target="fEdp_O807f-Rq1JhpH3r-2">
          <mxGeometry relative="1" as="geometry" />
        </mxCell>
        <mxCell id="fEdp_O807f-Rq1JhpH3r-6" style="edgeStyle=none;rounded=0;orthogonalLoop=1;jettySize=auto;html=1;exitX=1;exitY=1;exitDx=0;exitDy=0;entryX=0.5;entryY=0;entryDx=0;entryDy=0;fillColor=#dae8fc;strokeColor=#6c8ebf;" edge="1" parent="bXD3zzIToaZXQtOxM7Jp-1" source="fEdp_O807f-Rq1JhpH3r-7" target="fEdp_O807f-Rq1JhpH3r-8">
          <mxGeometry relative="1" as="geometry" />
        </mxCell>
        <mxCell id="fEdp_O807f-Rq1JhpH3r-7" value="1" style="ellipse;whiteSpace=wrap;html=1;aspect=fixed;fillColor=#dae8fc;strokeColor=#6c8ebf;" vertex="1" parent="bXD3zzIToaZXQtOxM7Jp-1">
          <mxGeometry x="189" y="140" width="30" height="30" as="geometry" />
        </mxCell>
        <mxCell id="fEdp_O807f-Rq1JhpH3r-8" value="3" style="ellipse;whiteSpace=wrap;html=1;aspect=fixed;fillColor=#dae8fc;strokeColor=#6c8ebf;" vertex="1" parent="bXD3zzIToaZXQtOxM7Jp-1">
          <mxGeometry x="229" y="190" width="30" height="30" as="geometry" />
        </mxCell>
        <mxCell id="fEdp_O807f-Rq1JhpH3r-9" value="&lt;div style=&quot;background-color: rgb(255 , 255 , 255) ; font-family: &amp;#34;consolas&amp;#34; , &amp;#34;courier new&amp;#34; , monospace ; font-weight: normal ; font-size: 11px ; line-height: 18px ; color: rgb(0 , 0 , 0)&quot;&gt;&lt;div style=&quot;font-size: 11px&quot;&gt;&lt;span style=&quot;color: rgb(0 , 0 , 255)&quot;&gt;def&lt;/span&gt;&amp;nbsp;&lt;span style=&quot;color: rgb(121 , 94 , 38)&quot;&gt;preorderTraversal&lt;/span&gt;(self,&amp;nbsp;&lt;span style=&quot;color: rgb(0 , 16 , 128)&quot;&gt;root&lt;/span&gt;:&amp;nbsp;TreeNode)&amp;nbsp;-&amp;gt;&amp;nbsp;List[&lt;span style=&quot;color: rgb(38 , 127 , 153)&quot;&gt;int&lt;/span&gt;]:&lt;br&gt;&lt;/div&gt;&lt;div style=&quot;font-size: 11px&quot;&gt;&lt;span style=&quot;color: rgb(0 , 0 , 0) ; font-size: 11px&quot;&gt;&amp;nbsp; &amp;nbsp;&amp;nbsp;&lt;/span&gt;&lt;span style=&quot;color: rgb(175 , 0 , 219) ; font-size: 11px&quot;&gt;if&lt;/span&gt;&lt;span style=&quot;color: rgb(0 , 0 , 0) ; font-size: 11px&quot;&gt;&amp;nbsp;root&amp;nbsp;&lt;/span&gt;&lt;span style=&quot;color: rgb(0 , 0 , 255) ; font-size: 11px&quot;&gt;is&lt;/span&gt;&lt;span style=&quot;color: rgb(0 , 0 , 0) ; font-size: 11px&quot;&gt;&amp;nbsp;&lt;/span&gt;&lt;span style=&quot;color: rgb(0 , 0 , 255) ; font-size: 11px&quot;&gt;None&lt;/span&gt;&lt;span style=&quot;color: rgb(0 , 0 , 0) ; font-size: 11px&quot;&gt;:&lt;/span&gt;&lt;/div&gt;&lt;div style=&quot;font-size: 11px&quot;&gt;&lt;span style=&quot;color: rgb(0 , 0 , 0) ; font-size: 11px&quot;&gt;&amp;nbsp; &amp;nbsp; &amp;nbsp; &amp;nbsp;&amp;nbsp;&lt;/span&gt;&lt;span style=&quot;color: rgb(175 , 0 , 219) ; font-size: 11px&quot;&gt;return&lt;/span&gt;&lt;span style=&quot;color: rgb(0 , 0 , 0) ; font-size: 11px&quot;&gt;&amp;nbsp;[]&lt;/span&gt;&lt;/div&gt;&lt;div style=&quot;font-size: 11px&quot;&gt;&lt;span style=&quot;color: rgb(0 , 0 , 0) ; font-size: 11px&quot;&gt;&amp;nbsp; &amp;nbsp;&amp;nbsp;&lt;/span&gt;&lt;span style=&quot;color: rgb(175 , 0 , 219) ; font-size: 11px&quot;&gt;return&lt;/span&gt;&lt;span style=&quot;color: rgb(0 , 0 , 0) ; font-size: 11px&quot;&gt;&amp;nbsp;&amp;nbsp;[root.val]&amp;nbsp;+&amp;nbsp;\&lt;/span&gt;&lt;/div&gt;&lt;div style=&quot;font-size: 11px&quot;&gt;&lt;span style=&quot;color: rgb(0 , 0 , 0) ; font-size: 11px&quot;&gt;&amp;nbsp; &amp;nbsp; &amp;nbsp; &amp;nbsp; &amp;nbsp; &amp;nbsp;&amp;nbsp;&lt;/span&gt;&lt;span style=&quot;color: rgb(0 , 0 , 255) ; font-size: 11px&quot;&gt;self&lt;/span&gt;&lt;span style=&quot;color: rgb(0 , 0 , 0) ; font-size: 11px&quot;&gt;.preorderTraversal(root.left)&amp;nbsp;+&amp;nbsp;\&lt;/span&gt;&lt;/div&gt;&lt;div style=&quot;font-size: 11px&quot;&gt;&lt;span style=&quot;color: rgb(0 , 0 , 0) ; font-size: 11px&quot;&gt;&amp;nbsp; &amp;nbsp; &amp;nbsp; &amp;nbsp; &amp;nbsp; &amp;nbsp;&amp;nbsp;&lt;/span&gt;&lt;span style=&quot;color: rgb(0 , 0 , 255) ; font-size: 11px&quot;&gt;self&lt;/span&gt;&lt;span style=&quot;color: rgb(0 , 0 , 0) ; font-size: 11px&quot;&gt;.preorderTraversal(root.right)&lt;/span&gt;&lt;/div&gt;&lt;/div&gt;" style="text;whiteSpace=wrap;html=1;" vertex="1" parent="bXD3zzIToaZXQtOxM7Jp-1">
          <mxGeometry x="299" y="145" width="410" height="120" as="geometry" />
        </mxCell>
      </root>
    </mxGraphModel>
  </diagram>
</mxfile>
